<svg id="Layer_1" data-name="Layer 1" xmlns="http://www.w3.org/2000/svg" viewBox="0 0 1154.81 506.06"><defs><style>.cls-1{fill:#400d51;}.cls-2{fill:#ef5b0c;}</style></defs><path class="cls-1" d="M313.54,270a37.52,37.52,0,0,1-17.8,10.34,22.52,22.52,0,0,1,14.35,9.18,27.35,27.35,0,0,1,5.17,16.66,19.66,19.66,0,0,1-.57,5.74c-1.72,10.91-6.89,19.52-16.08,25.84-8.61,6.32-20.1,9.76-33.31,9.76H205l23-129.2h58c11.48,0,20.67,2.29,27,6.89s9.76,11.48,9.76,20.1a23.28,23.28,0,0,1-.58,6.31A29,29,0,0,1,313.54,270Zm-29.29,33.88a10.31,10.31,0,0,0-4-8.61c-2.29-2.3-6.31-2.88-10.91-2.88h-23l-5.17,29.29h23c5.17,0,9.77-1.15,12.64-3.44,3.44-2.3,5.17-5.75,6.31-10.91A5.69,5.69,0,0,0,284.25,303.92Zm0-37.33c3.45-2.29,5.17-5.74,5.75-10.33v-2.87c0-3.45-1.15-6.32-3.45-8s-5.74-2.87-10.34-2.87H255.54L251,270h20.67A21.79,21.79,0,0,0,284.25,266.59Z"/><path class="cls-1" d="M446.77,244.2,428.39,346.41H396.81l2.29-13.78c-4,4.6-9.18,8-14.93,10.91a41.62,41.62,0,0,1-18.95,4q-15.5,0-24.12-8.61t-8.61-24.12a63.07,63.07,0,0,1,1.15-10.91l10.91-59.72h31l-9.76,55.7a19.33,19.33,0,0,0-.58,5.74,16.46,16.46,0,0,0,4.6,12.06c2.87,2.87,6.89,4,12.06,4a22.47,22.47,0,0,0,14.93-5.17,25.29,25.29,0,0,0,8-14.93l10.33-57.42Z"/><path class="cls-1" d="M492.71,244.2l12.63,64.31,35-64.31h33.88L482.94,395.8H449.06l32.73-52.26L457.68,244.2Z"/><path class="cls-1" d="M581.14,267.17a54.08,54.08,0,0,1,19.52-18.38,50.38,50.38,0,0,1,24.12-6.31,36.3,36.3,0,0,1,18.38,4.59,26.19,26.19,0,0,1,10.91,11.48l2.3-14.35H688L669.57,346.41H638l2.87-14.35a43.23,43.23,0,0,1-14.93,11.48,45.05,45.05,0,0,1-20.1,4.6q-11.19,0-19-5.17c-5.74-3.45-9.76-8-13.21-14.36a50.2,50.2,0,0,1-4.59-21.24,102.23,102.23,0,0,1,1.15-12.64C572.53,284.4,576,275.21,581.14,267.17ZM647.75,289c0-5.74-1.72-10.91-5.17-14.36a18.19,18.19,0,0,0-13.2-5.17,25.31,25.31,0,0,0-17.23,6.9,30.36,30.36,0,0,0-9.76,18.37,23.35,23.35,0,0,0-.58,6.32c0,5.74,1.73,10.91,5.17,14.35a18.18,18.18,0,0,0,13.21,5.17,25.3,25.3,0,0,0,17.23-6.89,30.41,30.41,0,0,0,9.76-18.37A23.75,23.75,0,0,0,647.75,289Z"/><path class="cls-1" d="M797.63,251.66q8.61,8.63,8.62,24.12a79.06,79.06,0,0,1-1.15,10.91l-10.91,59.72h-31l9.76-55.7a21.66,21.66,0,0,0,.57-5.74c0-5.17-1.72-9.19-4.59-12.06s-6.89-4-12.06-4c-6.32,0-11.48,1.72-15.5,5.74a28.56,28.56,0,0,0-8,16.08v-1.15l-9.77,56.85h-31l17.81-102.79h31.58l-2.3,13.79c4-4.6,9.19-8,14.93-10.92a41.64,41.64,0,0,1,19-4C783.85,243.05,791.89,245.92,797.63,251.66Z"/><path class="cls-1" d="M830.36,267.17a54,54,0,0,1,19.53-18.38A50.32,50.32,0,0,1,874,242.48c6.89,0,12.63,1.14,17.8,4A26.26,26.26,0,0,1,902.72,258l8.61-47.66h31.59L918.8,346.41H887.21l2.3-14.93c-4,5.17-8.61,8.62-14.93,12.06a44.41,44.41,0,0,1-19.52,4.6q-11.2,0-18.95-5.17c-5.75-3.45-9.77-8-13.21-14.36a50.21,50.21,0,0,1-4.6-21.24,86.32,86.32,0,0,1,1.15-12.06A72.39,72.39,0,0,1,830.36,267.17ZM897,289c0-5.74-1.73-10.91-5.17-14.36a18.23,18.23,0,0,0-13.21-5.17,25.31,25.31,0,0,0-17.23,6.9,30.41,30.41,0,0,0-9.76,18.37,23.75,23.75,0,0,0-.57,6.32c0,5.74,1.72,10.91,5.17,14.35a18.15,18.15,0,0,0,13.2,5.17,25.3,25.3,0,0,0,17.23-6.89,30.36,30.36,0,0,0,9.76-18.37A23.35,23.35,0,0,0,897,289Z"/><path class="cls-2" d="M990,224.1c-3.44,2.87-5.74,7.46-6.89,14.36L982,245.35h21.24l-2.29,13.78H979.67l-15.51,87.28H947.51L963,259.13H950.38l2.3-13.78h12.63l1.15-6.89c2.3-11.49,6.32-19.53,13.21-24.7s16.65-8,29.29-8l-2.3,13.79C999.19,220.08,993.45,221.23,990,224.1Z"/><path class="cls-2" d="M1045.71,210.32l-24.12,136.09h-16.65l24.11-136.09Z"/><path class="cls-2" d="M1074.42,245.92l17.23,81.54,45.94-81.54h17.22L1068.1,394.08h-17.22l28.71-48.81-23-99.92h17.8Z"/><path class="cls-1" d="M685.65,485.38c-36.17-18.95-73.5-34.45-113.7-42.49-53.4-10.91-106.81-8-159.64,4-40.2,8.61-79.25,20.1-119.44,28.14-42.5,8-85.57,12.06-128.06,1.14-39.62-10.33-69.48-32.73-89.58-68.33-47.09-82.69-31.59-171.13,41.34-237.74,6.32-5.74,12.64-10.91,20.1-17.23-13.78-3.44-27-6.89-40.77-9.76-5.17-1.15-5.17-3.45-2.87-6.89,4-6.32,10.33-8.61,17.23-9.19,9.18-1.72,18.37-.57,27,.58,2.87.57,4.59.57,6.89-1.15,14.93-13.79,29.86-27,45.36-41.35C126.33,68.48,63.74,51.82,0,34.6c17.23-8,32.73-13.78,50-12.64,37.9,1.73,75.23,5.75,113.13,9.19,24.69,2.3,50,5.17,74.65,8,4,.58,6.89-1.15,9.76-3.44,20.67-15.51,43.64-27,68.34-33.31,15.5-4,29.28-4.59,40.77,10.34-.58,1.72-2.87,2.87-5.17,4C288.27,62.16,224.53,107,161.36,152.89,122.31,181.6,91.31,217.78,73.5,263.72c-30.43,78.67,4,153.33,83.27,182.61,42.49,15.51,86.14,16.66,130.35,10.34,31.59-4.59,62-14.93,93-20.67,78.1-13.79,155.62-13.79,232,12.06,26.41,8.61,51.11,20.09,74.08,36.17C687.38,484.81,687.38,486,685.65,485.38Z"/><path class="cls-1" d="M212.47,212c1.15-18.38,2.87-36.75,4-55.13,0-1.15.58-2.87.58-4-2.3-18.95,6.31-31,21.82-40.77,8-4.59,14.93-11.48,23-16.65-14.93,39.05-18.38,83.26-47.09,116.57C214.2,212.61,213.05,212,212.47,212Z"/><circle class="cls-1" cx="682.78" cy="485.96" r="20.1"/></svg>